<!DOCTYPE svg PUBLIC "-//W3C//DTD SVG 1.1//EN" "http://www.w3.org/Graphics/SVG/1.1/DTD/svg11.dtd">

<!-- Uploaded to: SVG Repo, www.svgrepo.com, Transformed by: SVG Repo Mixer Tools -->
<svg fill="#ffffff" height="800px" width="800px" version="1.1" id="Layer_1" xmlns="http://www.w3.org/2000/svg" xmlns:xlink="http://www.w3.org/1999/xlink" viewBox="0 0 491.52 491.52" xml:space="preserve">

<g id="SVGRepo_bgCarrier" stroke-width="0"/>

<g id="SVGRepo_tracerCarrier" stroke-linecap="round" stroke-linejoin="round"/>

<g id="SVGRepo_iconCarrier"> <g> <g> <path d="M420.4,221.72l-16.635-4.91l-39.293,39.289c-7.921-4.979-16.579-9.025-25.932-11.829l-17.205-5.09l-75.57,75.57 l-75.575-75.57l-17.24,5.1c-9.339,2.8-17.987,6.842-25.9,11.816L87.76,216.81l-16.685,4.92C28.565,234.49,0,272.88,0,317.26v82.1 h78.51v30.72h334.505v-30.72h78.505v-82.1C491.52,272.88,462.955,234.49,420.4,221.72z M78.51,378.88H20.48v-61.62 c0-35.27,22.7-65.77,56.44-75.9l4.97-1.47l28.841,28.844c-20.16,19.181-32.221,46.109-32.221,75.586V378.88z M392.535,409.6H98.99 v-65.28c0-37.37,24.05-69.69,59.805-80.41l5.525-1.63l81.445,81.43l81.44-81.43l5.495,1.62c35.79,10.73,59.835,43.05,59.835,80.42 V409.6z M471.04,378.88h-58.025v-34.56c0-29.475-12.057-56.4-32.223-75.584l28.843-28.846l4.92,1.46 c33.785,10.13,56.485,40.64,56.485,75.91V378.88z"/> </g> </g> <g> <g> <path d="M332.12,61.44c-19.857,0-38.506,8.451-51.659,22.916c-10.328-5.599-22.146-8.786-34.696-8.786 c-12.551,0-24.371,3.187-34.699,8.787c-13.153-14.465-31.803-22.917-51.661-22.917c-38.545,0-69.905,31.36-69.905,69.9 c0,38.55,31.36,69.91,69.905,69.91c10.352,0,20.453-2.284,29.694-6.629c13.405,16.478,33.818,27.039,56.666,27.039 c22.846,0,43.258-10.559,56.663-27.035c9.239,4.341,19.338,6.625,29.692,6.625c38.545,0,69.905-31.36,69.905-69.91 C402.025,92.8,370.665,61.44,332.12,61.44z M178.415,176.874c-5.99,2.501-12.41,3.896-19.01,3.896 c-27.255,0-49.425-22.17-49.425-49.43c0-27.25,22.17-49.42,49.425-49.42c13.341,0,25.884,5.434,35.09,14.747 c-13.427,13.254-21.775,31.641-21.775,51.953C172.72,158.632,174.752,168.177,178.415,176.874z M245.765,201.18 c-28.985,0-52.565-23.58-52.565-52.56c0-28.99,23.58-52.57,52.565-52.57s52.565,23.58,52.565,52.57 C298.33,177.6,274.75,201.18,245.765,201.18z M332.12,180.77c-6.602,0-13.019-1.396-19.006-3.895 c3.664-8.697,5.696-18.242,5.696-28.255c0-20.314-8.349-38.702-21.777-51.956c9.206-9.311,21.747-14.744,35.087-14.744 c27.255,0,49.425,22.17,49.425,49.42C381.545,158.6,359.375,180.77,332.12,180.77z"/> </g> </g> </g>

</svg>